<?xml version="1.0" encoding="UTF-8" standalone="no"?>
<!-- Created with Inkscape (http://www.inkscape.org/) -->

<svg
   xmlns:dc="http://purl.org/dc/elements/1.1/"
   xmlns:cc="http://creativecommons.org/ns#"
   xmlns:rdf="http://www.w3.org/1999/02/22-rdf-syntax-ns#"
   xmlns:svg="http://www.w3.org/2000/svg"
   xmlns="http://www.w3.org/2000/svg"
   xmlns:sodipodi="http://sodipodi.sourceforge.net/DTD/sodipodi-0.dtd"
   xmlns:inkscape="http://www.inkscape.org/namespaces/inkscape"
   width="210mm"
   height="297mm"
   viewBox="0 0 210 297"
   version="1.1"
   id="svg8"
   inkscape:version="0.92.1 r15371"
   sodipodi:docname="home_background.svg">
  <defs
     id="defs2" />
  <sodipodi:namedview
     id="base"
     pagecolor="#ffff00"
     bordercolor="#666666"
     borderopacity="1.0"
     inkscape:pageopacity="0"
     inkscape:pageshadow="2"
     inkscape:zoom="0.35"
     inkscape:cx="-152.85714"
     inkscape:cy="542.85714"
     inkscape:document-units="mm"
     inkscape:current-layer="layer1"
     showgrid="false"
     inkscape:window-width="1920"
     inkscape:window-height="1029"
     inkscape:window-x="0"
     inkscape:window-y="0"
     inkscape:window-maximized="1" />
  <metadata
     id="metadata5">
    <rdf:RDF>
      <cc:Work
         rdf:about="">
        <dc:format>image/svg+xml</dc:format>
        <dc:type
           rdf:resource="http://purl.org/dc/dcmitype/StillImage" />
        <dc:title></dc:title>
      </cc:Work>
    </rdf:RDF>
  </metadata>
  <g
     inkscape:label="Layer 1"
     inkscape:groupmode="layer"
     id="layer1">
    <rect
       style="fill:#edddff;fill-opacity:0;stroke-width:0.26458332"
       id="rect4505"
       width="217.71431"
       height="300.86902"
       x="-3.7797623"
       y="-1.6011935" />
    <rect
       style="fill:#f7efff;fill-opacity:1;stroke-width:0.59437835"
       id="rect4598"
       width="217.71429"
       height="300.86902"
       x="-3.7797623"
       y="-1.6011935" />
    <g
       aria-label="Memorio"
       transform="rotate(90,-1.1339286,1.889881)"
       style="font-style:italic;font-variant:normal;font-weight:500;font-stretch:normal;font-size:70.55555725px;line-height:1.25;font-family:'URW Chancery L';-inkscape-font-specification:'URW Chancery L, Medium Italic';font-variant-ligatures:normal;font-variant-caps:normal;font-variant-numeric:normal;font-feature-settings:normal;text-align:start;letter-spacing:0px;word-spacing:0px;writing-mode:lr-tb;text-anchor:start;fill:#000000;fill-opacity:1;stroke:none;stroke-width:0.26458332"
       id="text4581">
      <path
         d="m 36.371092,-83.934807 c 1.27,0.07056 2.328333,0.07056 3.033889,0.07056 5.503333,0 9.172222,-1.622778 12.206111,-5.362223 2.257778,-2.892777 3.104445,-4.656666 4.797778,-10.442222 0.776111,-2.822228 3.386667,-12.417778 4.586111,-17.286118 2.469445,25.470563 2.54,26.035007 2.681112,31.679452 l 3.457222,-2.681112 c 2.469444,-5.291666 7.196667,-12.62945 18.838334,-29.21 l -0.705556,3.10444 c -0.211667,1.05833 -0.776111,3.175 -1.622778,6.27944 -4.092222,15.240009 -4.938889,18.485565 -5.08,18.838343 -0.564444,1.622777 -0.917222,3.104444 -0.917222,4.092222 0,0.987778 0.776111,1.834444 1.693333,1.834444 0.352778,0 0.776111,-0.07055 1.340556,-0.141111 0.705555,-0.141111 4.868333,-0.846666 6.632222,-1.128889 l 3.316111,-0.423333 c 0.211667,-0.07056 0.776112,-0.141111 1.693334,-0.282222 l 1.481667,-1.763889 c -1.199445,0.07055 -2.328334,0.141111 -2.681112,0.211667 -1.199444,0.07055 -2.328333,0.141111 -2.892777,0.141111 -2.257778,0 -3.527778,-1.058334 -3.527778,-2.822223 0,-1.834444 0.07055,-2.257777 1.905,-9.736667 3.033889,-12.276673 3.245555,-13.123333 4.586111,-17.921113 2.822222,-9.80722 3.175,-10.58334 5.009444,-10.58334 0.635001,0 1.552223,0.0706 2.469445,0.28223 0.211667,0.0705 1.058333,0.21166 1.905001,0.35277 l 2.89278,-3.95111 c -1.27,-0.35277 -1.97556,-0.42333 -2.82223,-0.42333 -1.83444,0 -3.386662,0.56444 -5.926662,2.04611 -3.951111,2.25778 -4.656667,2.89278 -7.196667,6.49111 l -9.525,13.26445 -7.972778,11.571112 -1.763889,2.54 C 67.344982,-106.0187 65.510537,-121.61147 64.593315,-126.55036 l -2.187222,1.76389 c -2.681112,-0.35278 -4.021667,-0.42334 -5.715001,-0.42334 -4.727222,0 -7.549444,1.19945 -10.865555,4.65667 -3.81,3.81 -6.067778,8.32555 -6.067778,11.92389 0,2.04611 0.423333,3.88055 1.622778,6.49111 l 5.362222,-3.73945 c -1.693334,-3.66888 -2.257778,-5.43277 -2.257778,-7.47888 0,-4.58612 3.457222,-7.12612 9.595556,-7.12612 1.622778,0 2.751667,0.0706 5.08,0.42334 -3.104445,12.62944 -6.914445,25.823332 -8.184445,28.08111 -1.340555,2.469444 -3.104444,3.527778 -6.138333,3.527778 -1.199445,0 -1.199445,0 -5.221111,-0.352778 z"
         style="font-style:italic;font-variant:normal;font-weight:500;font-stretch:normal;font-size:70.55555725px;font-family:'URW Chancery L';-inkscape-font-specification:'URW Chancery L, Medium Italic';font-variant-ligatures:normal;font-variant-caps:normal;font-variant-numeric:normal;font-feature-settings:normal;text-align:start;writing-mode:lr-tb;text-anchor:start;fill:#ffffff;fill-opacity:1;stroke-width:0.26458332"
         id="path4583"
         inkscape:connector-curvature="0" />
      <path
         d="m 118.34562,-93.600918 c -5.29166,4.586111 -8.67833,6.561667 -11.35944,6.561667 -1.76389,0 -3.24556,-1.199445 -3.73945,-3.033889 -0.28222,-1.128889 -0.35277,-1.905 -0.35277,-3.951112 3.175,-1.975555 5.29166,-3.457222 9.45444,-6.561668 3.81,-2.89278 5.29167,-5.22111 5.29167,-8.39611 0,-2.46944 -1.55222,-3.95111 -4.02167,-3.95111 -1.55222,0 -2.68111,0.35278 -4.30389,1.27 -2.68111,1.55222 -5.08,3.45722 -6.56166,5.15055 -2.68112,3.24556 -5.080005,11.006672 -5.080005,16.721672 0,4.162778 2.187222,6.773333 5.785555,6.773333 4.16278,0 9.31333,-2.963333 14.88722,-8.537222 z m -15.24,-2.963334 c 1.19945,-7.549448 4.445,-13.405558 7.47889,-13.405558 1.19945,0 1.97556,1.19945 1.97556,2.89278 0,3.52778 -1.905,5.64444 -9.45445,10.512778 z"
         style="font-style:italic;font-variant:normal;font-weight:500;font-stretch:normal;font-size:70.55555725px;font-family:'URW Chancery L';-inkscape-font-specification:'URW Chancery L, Medium Italic';font-variant-ligatures:normal;font-variant-caps:normal;font-variant-numeric:normal;font-feature-settings:normal;text-align:start;writing-mode:lr-tb;text-anchor:start;fill:#ffffff;fill-opacity:1;stroke-width:0.26458332"
         id="path4585"
         inkscape:connector-curvature="0" />
      <path
         d="m 127.01293,-85.134251 4.51556,-17.144999 c 4.72722,-3.175 7.62,-4.86834 8.53722,-4.86834 0.56444,0 0.91722,0.635 0.91722,1.55223 0,2.11666 -2.68111,12.841109 -5.64444,22.366109 l 5.36222,-1.905 4.37444,-17.638889 c 4.09223,-2.61056 7.90223,-4.72722 8.74889,-4.72722 0.56445,0 0.91722,0.49389 0.91722,1.34055 0,1.55222 -0.635,4.445 -2.54,11.994447 -1.12888,4.374445 -1.48166,6.138334 -1.48166,7.761112 0,1.481666 0.42333,2.257778 1.69333,3.175 4.16278,-2.046111 7.69056,-4.303889 11.99445,-7.690556 v -1.622778 c -0.70556,0.352778 -1.48167,0.846667 -2.39889,1.481667 -2.54,1.622778 -3.73945,2.187222 -4.58611,2.187222 -0.77612,0 -1.27,-0.705555 -1.27,-1.905 0,-1.552222 0.91722,-5.573889 2.32833,-10.512774 2.11667,-7.26723 2.68111,-9.525 2.68111,-10.58334 0,-0.70555 -0.42333,-1.05833 -1.12889,-1.05833 -1.27,0 -5.64444,2.25778 -14.25222,7.33778 0.21167,-0.77611 0.28222,-1.34056 0.35278,-1.62278 0.84666,-3.52778 1.05833,-4.51556 1.05833,-4.93889 0,-0.49389 -0.35278,-0.77611 -0.91722,-0.77611 -1.05834,0 -4.72722,1.97555 -11.78278,6.49111 l -2.25778,1.41111 c 1.27,-5.15055 1.55222,-6.42055 1.55222,-6.91444 0,-0.56445 -0.42333,-0.98778 -1.05833,-0.98778 -0.84667,0 -6.42055,3.03389 -11.00667,5.92667 l -0.49388,1.97555 c 3.88055,-1.905 4.445,-2.11667 5.22111,-2.11667 0.635,0 1.05833,0.56445 1.05833,1.34056 0,1.12889 -2.54,11.571112 -5.50333,22.577779 z"
         style="font-style:italic;font-variant:normal;font-weight:500;font-stretch:normal;font-size:70.55555725px;font-family:'URW Chancery L';-inkscape-font-specification:'URW Chancery L, Medium Italic';font-variant-ligatures:normal;font-variant-caps:normal;font-variant-numeric:normal;font-feature-settings:normal;text-align:start;writing-mode:lr-tb;text-anchor:start;fill:#ffffff;fill-opacity:1;stroke-width:0.26458332"
         id="path4587"
         inkscape:connector-curvature="0" />
      <path
         d="m 184.52563,-112.93314 c -2.82222,0 -7.33777,2.04611 -11.50055,5.15055 -4.51556,3.38667 -7.69056,10.72445 -7.69056,17.70945 0,4.303889 2.39889,7.055555 6.13834,7.055555 1.97555,0 3.95111,-0.705555 7.19666,-2.398889 3.52778,-1.975555 5.85611,-3.739444 7.12611,-5.432777 2.82223,-3.810001 5.08001,-10.724449 5.08001,-15.592779 0,-3.81 -2.61056,-6.49111 -6.35001,-6.49111 z m -3.66888,3.31611 c 2.82222,0 4.58611,2.75167 4.58611,6.985 0,2.963334 -0.98778,6.632223 -2.75167,10.089445 -1.97556,4.021667 -4.51556,6.208889 -7.19667,6.208889 -2.89277,0 -4.72722,-2.610555 -4.72722,-6.632222 0,-8.184442 5.15056,-16.651112 10.08945,-16.651112 z"
         style="font-style:italic;font-variant:normal;font-weight:500;font-stretch:normal;font-size:70.55555725px;font-family:'URW Chancery L';-inkscape-font-specification:'URW Chancery L, Medium Italic';font-variant-ligatures:normal;font-variant-caps:normal;font-variant-numeric:normal;font-feature-settings:normal;text-align:start;writing-mode:lr-tb;text-anchor:start;fill:#ffffff;fill-opacity:1;stroke-width:0.26458332"
         id="path4589"
         inkscape:connector-curvature="0" />
      <path
         d="m 193.79597,-83.229251 5.43278,-2.046111 5.29166,-20.108338 c 2.39889,-1.76389 4.02167,-2.46944 5.92667,-2.46944 1.55222,0 2.46944,0.56444 3.73944,2.18722 l 2.11667,-6.70278 c -1.34055,-0.42333 -1.905,-0.56444 -2.61055,-0.56444 -1.27,0 -2.75167,0.635 -4.65667,1.97555 l -4.16278,3.03389 c 0.0706,-0.56444 0.21167,-0.91722 0.21167,-1.12889 0.56444,-2.32833 0.635,-2.75166 0.635,-3.10444 0,-0.42333 -0.42334,-0.77611 -0.91722,-0.77611 -0.91723,0 -7.12612,3.03389 -11.43,5.64444 l -0.21167,1.905 c 3.81,-1.97555 4.23333,-2.11666 5.08,-2.11666 0.91722,0 1.34055,0.49389 1.34055,1.48166 0,0.98778 -0.70555,4.30389 -1.55222,7.337782 z"
         style="font-style:italic;font-variant:normal;font-weight:500;font-stretch:normal;font-size:70.55555725px;font-family:'URW Chancery L';-inkscape-font-specification:'URW Chancery L, Medium Italic';font-variant-ligatures:normal;font-variant-caps:normal;font-variant-numeric:normal;font-feature-settings:normal;text-align:start;writing-mode:lr-tb;text-anchor:start;fill:#ffffff;fill-opacity:1;stroke-width:0.26458332"
         id="path4591"
         inkscape:connector-curvature="0" />
      <path
         d="m 225.7422,-118.78925 c 2.04611,-1.83445 2.18722,-1.97556 4.58611,-3.81 -0.42333,-0.84667 -0.77611,-1.41111 -0.91722,-1.62278 -0.42333,-0.84667 -0.49389,-0.91722 -1.05833,-2.25778 -0.14112,-0.28222 -0.28223,-0.56444 -0.42334,-0.91722 -0.35278,0.28222 -0.77611,0.56444 -0.98778,0.77611 -0.28222,0.28222 -0.84666,0.70556 -1.55222,1.27 -0.35278,0.28222 -0.84666,0.635 -1.48166,1.05833 -0.28223,0.21167 -0.56445,0.42334 -0.84667,0.56445 0.49389,1.55222 1.12889,2.68111 2.68111,4.93889 z m 4.86833,26.669999 c -6.70277,3.598333 -6.84389,3.668889 -7.76111,3.668889 -0.77611,0 -1.27,-0.776112 -1.27,-1.975556 0,-0.705556 0.21167,-2.046111 0.635,-3.598334 3.59834,-14.816668 4.30389,-17.638888 4.30389,-18.203338 0,-0.42333 -0.35278,-0.70555 -0.84667,-0.70555 -1.19944,0 -5.36222,2.32833 -11.14777,6.20889 l -0.14111,1.97555 c 4.16277,-2.25777 4.51555,-2.39889 5.15055,-2.39889 0.56445,0 0.84667,0.42334 0.84667,1.27 0,0.91723 -0.21167,1.905 -1.27,5.926672 -3.31611,12.347222 -3.31611,12.347222 -3.31611,14.111111 0,1.693334 0.70555,2.822222 1.69333,2.822222 1.19944,0 3.10444,-0.917222 6.84389,-3.316111 1.34055,-0.846666 2.68111,-1.693333 4.02167,-2.610555 0.635,-0.352778 1.27,-0.776112 1.97555,-1.199445 z"
         style="font-style:italic;font-variant:normal;font-weight:500;font-stretch:normal;font-size:70.55555725px;font-family:'URW Chancery L';-inkscape-font-specification:'URW Chancery L, Medium Italic';font-variant-ligatures:normal;font-variant-caps:normal;font-variant-numeric:normal;font-feature-settings:normal;text-align:start;writing-mode:lr-tb;text-anchor:start;fill:#ffffff;fill-opacity:1;stroke-width:0.26458332"
         id="path4593"
         inkscape:connector-curvature="0" />
      <path
         d="m 250.94708,-112.93314 c -2.82223,0 -7.33778,2.04611 -11.50056,5.15055 -4.51556,3.38667 -7.69056,10.72445 -7.69056,17.70945 0,4.303889 2.39889,7.055555 6.13834,7.055555 1.97555,0 3.95111,-0.705555 7.19666,-2.398889 3.52778,-1.975555 5.85612,-3.739444 7.12612,-5.432777 2.82222,-3.810001 5.08,-10.724449 5.08,-15.592779 0,-3.81 -2.61056,-6.49111 -6.35,-6.49111 z m -3.66889,3.31611 c 2.82222,0 4.58611,2.75167 4.58611,6.985 0,2.963334 -0.98778,6.632223 -2.75167,10.089445 -1.97556,4.021667 -4.51556,6.208889 -7.19667,6.208889 -2.89277,0 -4.72722,-2.610555 -4.72722,-6.632222 0,-8.184442 5.15056,-16.651112 10.08945,-16.651112 z"
         style="font-style:italic;font-variant:normal;font-weight:500;font-stretch:normal;font-size:70.55555725px;font-family:'URW Chancery L';-inkscape-font-specification:'URW Chancery L, Medium Italic';font-variant-ligatures:normal;font-variant-caps:normal;font-variant-numeric:normal;font-feature-settings:normal;text-align:start;writing-mode:lr-tb;text-anchor:start;fill:#ffffff;fill-opacity:1;stroke-width:0.26458332"
         id="path4595"
         inkscape:connector-curvature="0" />
    </g>
  </g>
</svg>
