<svg width="512" height="512" xmlns="http://www.w3.org/2000/svg">

 <g>
  <title>background</title>
  <rect fill="none" id="canvas_background" height="402" width="582" y="-1" x="-1"/>
 </g>
 <g>
  <title>Layer 1</title>
  <circle id="svg_3" r="256" fill="#5e00c2" cy="256" cx="256"/>
  <path id="svg_4" fill="#3f0083" d="m256,469.33386c-117.63147,0 -213.33333,-95.70187 -213.33333,-213.33334c0,-117.63092 95.70186,-213.33331 213.33333,-213.33331c117.63626,0 213.33334,95.7024 213.33334,213.33331c0,117.63147 -95.69708,213.33334 -213.33334,213.33334z"/>
  <polygon id="svg_6" points="299.6554565,149 299.6554565,202.4586639 353.1152039,202.4586639   " opacity="0.3"/>
  <path id="svg_7" opacity="0.3" d="m289.65546,212.45866l0,-68.45866l-119.77066,0l0,240l188.2304,0l0,-171.54134l-68.45974,0zm-73.81333,139.57973l-20.14656,-20.15146l7.0703,-7.0704l13.07626,13.08108l29.69226,-29.69174l7.07041,7.06986l-36.76267,36.76266zm0,-64.35519l-20.14656,-20.14667l7.0703,-7.0704l13.07626,13.07626l29.69226,-29.69226l7.07041,7.06987l-36.76267,36.7632zm113.01279,53.54507l-68.01801,0l0,-10l68.01801,0l0,10zm0,-64.35574l-68.01801,0l0,-10l68.01801,0l0,10z"/>
  <polygon id="svg_9" points="291.6554565,141 291.6554565,194.4586639 345.1152039,194.4586639   " fill="#FFFFFF"/>
  <path id="svg_10" fill="#FFFFFF" d="m281.65546,204.45866l0,-68.45866l-119.77066,0l0,240l188.2304,0l0,-171.54134l-68.45974,0zm-73.81333,139.57973l-20.14656,-20.15146l7.0703,-7.0704l13.07626,13.08108l29.69226,-29.69174l7.07041,7.06986l-36.76267,36.76266zm0,-64.35519l-20.14656,-20.14667l7.0703,-7.07039l13.07626,13.07625l29.69226,-29.69226l7.07041,7.06987l-36.76267,36.7632zm113.01279,53.54507l-68.01802,0l0,-10l68.01802,0l0,10zm0,-64.35574l-68.01802,0l0,-10l68.01802,0l0,10z"/>
 </g>
</svg>